<mxfile host="app.diagrams.net" modified="2022-12-06T15:25:08.720Z" agent="5.0 (Windows NT 10.0; Win64; x64) AppleWebKit/537.36 (KHTML, like Gecko) Chrome/107.0.0.0 Safari/537.36 Edg/107.0.1418.62" version="20.6.0" etag="RWwuvk1mQI9HbNh_xTo1" type="github">
  <diagram id="15jZN3HHrQDCG8IoANjF" name="第 1 页">
    <mxGraphModel dx="1020" dy="869" grid="1" gridSize="10" guides="1" tooltips="1" connect="1" arrows="1" fold="1" page="1" pageScale="1" pageWidth="827" pageHeight="1169" math="0" shadow="0">
      <root>
        <mxCell id="0" />
        <mxCell id="1" parent="0" />
        <mxCell id="JjcSiVH8ba3IMDv7vtlP-1" style="edgeStyle=orthogonalEdgeStyle;curved=1;rounded=0;orthogonalLoop=1;jettySize=auto;html=1;exitX=1;exitY=0.5;exitDx=0;exitDy=0;entryX=0;entryY=0;entryDx=0;entryDy=0;" edge="1" parent="1" source="JjcSiVH8ba3IMDv7vtlP-3" target="JjcSiVH8ba3IMDv7vtlP-12">
          <mxGeometry relative="1" as="geometry" />
        </mxCell>
        <mxCell id="JjcSiVH8ba3IMDv7vtlP-29" value="注销信息" style="edgeLabel;html=1;align=center;verticalAlign=middle;resizable=0;points=[];" vertex="1" connectable="0" parent="JjcSiVH8ba3IMDv7vtlP-1">
          <mxGeometry x="0.07" y="-1" relative="1" as="geometry">
            <mxPoint as="offset" />
          </mxGeometry>
        </mxCell>
        <mxCell id="JjcSiVH8ba3IMDv7vtlP-3" value="管理员" style="rounded=0;whiteSpace=wrap;html=1;" vertex="1" parent="1">
          <mxGeometry x="40" y="140" width="90" height="50" as="geometry" />
        </mxCell>
        <mxCell id="JjcSiVH8ba3IMDv7vtlP-5" value="饭卡信息数据" style="shape=partialRectangle;whiteSpace=wrap;html=1;left=0;right=0;fillColor=none;" vertex="1" parent="1">
          <mxGeometry x="470" y="350" width="120" height="60" as="geometry" />
        </mxCell>
        <mxCell id="JjcSiVH8ba3IMDv7vtlP-7" value="饭卡历史信息数据" style="shape=partialRectangle;whiteSpace=wrap;html=1;left=0;right=0;fillColor=none;" vertex="1" parent="1">
          <mxGeometry x="290" y="350" width="120" height="60" as="geometry" />
        </mxCell>
        <mxCell id="JjcSiVH8ba3IMDv7vtlP-8" style="edgeStyle=orthogonalEdgeStyle;curved=1;rounded=0;orthogonalLoop=1;jettySize=auto;html=1;exitX=0;exitY=1;exitDx=0;exitDy=0;" edge="1" parent="1" source="JjcSiVH8ba3IMDv7vtlP-12" target="JjcSiVH8ba3IMDv7vtlP-17">
          <mxGeometry relative="1" as="geometry" />
        </mxCell>
        <mxCell id="JjcSiVH8ba3IMDv7vtlP-25" value="删除相关信息" style="edgeLabel;html=1;align=center;verticalAlign=middle;resizable=0;points=[];" vertex="1" connectable="0" parent="JjcSiVH8ba3IMDv7vtlP-8">
          <mxGeometry x="0.0517" y="-11" relative="1" as="geometry">
            <mxPoint as="offset" />
          </mxGeometry>
        </mxCell>
        <mxCell id="JjcSiVH8ba3IMDv7vtlP-9" style="edgeStyle=orthogonalEdgeStyle;curved=1;rounded=0;orthogonalLoop=1;jettySize=auto;html=1;exitX=0.5;exitY=1;exitDx=0;exitDy=0;entryX=0.5;entryY=0;entryDx=0;entryDy=0;" edge="1" parent="1" source="JjcSiVH8ba3IMDv7vtlP-12" target="JjcSiVH8ba3IMDv7vtlP-7">
          <mxGeometry relative="1" as="geometry" />
        </mxCell>
        <mxCell id="JjcSiVH8ba3IMDv7vtlP-28" value="删除相关信息" style="edgeLabel;html=1;align=center;verticalAlign=middle;resizable=0;points=[];" vertex="1" connectable="0" parent="JjcSiVH8ba3IMDv7vtlP-9">
          <mxGeometry x="0.1667" y="-1" relative="1" as="geometry">
            <mxPoint as="offset" />
          </mxGeometry>
        </mxCell>
        <mxCell id="JjcSiVH8ba3IMDv7vtlP-10" style="edgeStyle=orthogonalEdgeStyle;curved=1;rounded=0;orthogonalLoop=1;jettySize=auto;html=1;exitX=1;exitY=1;exitDx=0;exitDy=0;" edge="1" parent="1" source="JjcSiVH8ba3IMDv7vtlP-12" target="JjcSiVH8ba3IMDv7vtlP-5">
          <mxGeometry relative="1" as="geometry" />
        </mxCell>
        <mxCell id="JjcSiVH8ba3IMDv7vtlP-27" value="删除相关信息" style="edgeLabel;html=1;align=center;verticalAlign=middle;resizable=0;points=[];" vertex="1" connectable="0" parent="JjcSiVH8ba3IMDv7vtlP-10">
          <mxGeometry x="-0.0815" y="-27" relative="1" as="geometry">
            <mxPoint as="offset" />
          </mxGeometry>
        </mxCell>
        <mxCell id="JjcSiVH8ba3IMDv7vtlP-11" style="edgeStyle=orthogonalEdgeStyle;curved=1;rounded=0;orthogonalLoop=1;jettySize=auto;html=1;exitX=1;exitY=0.5;exitDx=0;exitDy=0;" edge="1" parent="1" source="JjcSiVH8ba3IMDv7vtlP-12" target="JjcSiVH8ba3IMDv7vtlP-19">
          <mxGeometry relative="1" as="geometry" />
        </mxCell>
        <mxCell id="JjcSiVH8ba3IMDv7vtlP-26" value="删除相关信息" style="edgeLabel;html=1;align=center;verticalAlign=middle;resizable=0;points=[];" vertex="1" connectable="0" parent="JjcSiVH8ba3IMDv7vtlP-11">
          <mxGeometry x="-0.0481" y="-23" relative="1" as="geometry">
            <mxPoint as="offset" />
          </mxGeometry>
        </mxCell>
        <mxCell id="JjcSiVH8ba3IMDv7vtlP-12" value="3.1&lt;br&gt;根据所要注销的信息注销" style="ellipse;whiteSpace=wrap;html=1;aspect=fixed;" vertex="1" parent="1">
          <mxGeometry x="230" y="170" width="80" height="80" as="geometry" />
        </mxCell>
        <mxCell id="JjcSiVH8ba3IMDv7vtlP-17" value="用户信息数据" style="shape=partialRectangle;whiteSpace=wrap;html=1;left=0;right=0;fillColor=none;" vertex="1" parent="1">
          <mxGeometry x="150" y="350" width="120" height="60" as="geometry" />
        </mxCell>
        <mxCell id="JjcSiVH8ba3IMDv7vtlP-19" value="持卡人信息数据" style="shape=partialRectangle;whiteSpace=wrap;html=1;left=0;right=0;fillColor=none;" vertex="1" parent="1">
          <mxGeometry x="660" y="340" width="120" height="60" as="geometry" />
        </mxCell>
      </root>
    </mxGraphModel>
  </diagram>
</mxfile>
